<svg width="205" height="15" viewBox="0 0 205 15" fill="none" xmlns="http://www.w3.org/2000/svg">
<path d="M11.2783 7.45215C11.2783 9.56738 10.6748 11.1875 9.46777 12.3125C8.2666 13.4375 6.5293 14 4.25586 14H0.617188V1.15039H4.65137C6.74902 1.15039 8.37793 1.7041 9.53809 2.81152C10.6982 3.91895 11.2783 5.46582 11.2783 7.45215ZM8.44824 7.52246C8.44824 4.7627 7.22949 3.38281 4.79199 3.38281H3.3418V11.75H4.51074C7.13574 11.75 8.44824 10.3408 8.44824 7.52246ZM21.3418 14H13.9414V1.15039H21.3418V3.38281H16.666V6.2041H21.0166V8.43652H16.666V11.75H21.3418V14ZM31.3613 1.15039H34.1123L29.7441 14H26.7734L22.4141 1.15039H25.165L27.582 8.79688C27.7168 9.24805 27.8545 9.77539 27.9951 10.3789C28.1416 10.9766 28.2324 11.3926 28.2676 11.627C28.332 11.0879 28.5518 10.1445 28.9268 8.79688L31.3613 1.15039ZM41.1963 3.2334C40.1709 3.2334 39.377 3.62012 38.8145 4.39355C38.252 5.16113 37.9707 6.2334 37.9707 7.61035C37.9707 10.4756 39.0459 11.9082 41.1963 11.9082C42.0986 11.9082 43.1914 11.6826 44.4746 11.2314V13.5166C43.4199 13.9561 42.2422 14.1758 40.9414 14.1758C39.0723 14.1758 37.6426 13.6104 36.6523 12.4795C35.6621 11.3428 35.167 9.71387 35.167 7.59277C35.167 6.25684 35.4102 5.08789 35.8965 4.08594C36.3828 3.07812 37.0801 2.30762 37.9883 1.77441C38.9023 1.23535 39.9717 0.96582 41.1963 0.96582C42.4443 0.96582 43.6982 1.26758 44.958 1.87109L44.0791 4.08594C43.5986 3.85742 43.1152 3.6582 42.6289 3.48828C42.1426 3.31836 41.665 3.2334 41.1963 3.2334ZM47.2168 14V1.15039H49.9414V11.75H55.1533V14H47.2168ZM69.0576 7.55762C69.0576 9.68457 68.5303 11.3193 67.4756 12.4619C66.4209 13.6045 64.9092 14.1758 62.9404 14.1758C60.9717 14.1758 59.46 13.6045 58.4053 12.4619C57.3506 11.3193 56.8232 9.67871 56.8232 7.54004C56.8232 5.40137 57.3506 3.76953 58.4053 2.64453C59.4658 1.51367 60.9834 0.948242 62.958 0.948242C64.9326 0.948242 66.4414 1.5166 67.4844 2.65332C68.5332 3.79004 69.0576 5.4248 69.0576 7.55762ZM59.6797 7.55762C59.6797 8.99316 59.9521 10.0742 60.4971 10.8008C61.042 11.5273 61.8564 11.8906 62.9404 11.8906C65.1143 11.8906 66.2012 10.4463 66.2012 7.55762C66.2012 4.66309 65.1201 3.21582 62.958 3.21582C61.874 3.21582 61.0566 3.58203 60.5059 4.31445C59.9551 5.04102 59.6797 6.12207 59.6797 7.55762ZM82.1797 1.15039V9.46484C82.1797 10.4141 81.9658 11.2461 81.5381 11.9609C81.1162 12.6758 80.5039 13.2236 79.7012 13.6045C78.8984 13.9854 77.9492 14.1758 76.8535 14.1758C75.2012 14.1758 73.918 13.7539 73.0039 12.9102C72.0898 12.0605 71.6328 10.9004 71.6328 9.42969V1.15039H74.3486V9.0166C74.3486 10.0068 74.5479 10.7334 74.9463 11.1963C75.3447 11.6592 76.0039 11.8906 76.9238 11.8906C77.8145 11.8906 78.459 11.6592 78.8574 11.1963C79.2617 10.7275 79.4639 9.99512 79.4639 8.99902V1.15039H82.1797ZM95.9873 7.45215C95.9873 9.56738 95.3838 11.1875 94.1768 12.3125C92.9756 13.4375 91.2383 14 88.9648 14H85.3262V1.15039H89.3604C91.458 1.15039 93.0869 1.7041 94.2471 2.81152C95.4072 3.91895 95.9873 5.46582 95.9873 7.45215ZM93.1572 7.52246C93.1572 4.7627 91.9385 3.38281 89.501 3.38281H88.0508V11.75H89.2197C91.8447 11.75 93.1572 10.3408 93.1572 7.52246ZM110.911 10.4316C110.911 11.5918 110.492 12.5059 109.654 13.1738C108.822 13.8418 107.662 14.1758 106.174 14.1758C104.803 14.1758 103.59 13.918 102.535 13.4023V10.8711C103.402 11.2578 104.135 11.5303 104.732 11.6885C105.336 11.8467 105.887 11.9258 106.385 11.9258C106.982 11.9258 107.439 11.8115 107.756 11.583C108.078 11.3545 108.239 11.0146 108.239 10.5635C108.239 10.3115 108.169 10.0889 108.028 9.89551C107.888 9.69629 107.68 9.50586 107.404 9.32422C107.135 9.14258 106.581 8.85254 105.743 8.4541C104.958 8.08496 104.369 7.73047 103.977 7.39062C103.584 7.05078 103.271 6.65527 103.036 6.2041C102.802 5.75293 102.685 5.22559 102.685 4.62207C102.685 3.48535 103.068 2.5918 103.836 1.94141C104.609 1.29102 105.676 0.96582 107.035 0.96582C107.703 0.96582 108.339 1.04492 108.942 1.20312C109.552 1.36133 110.188 1.58398 110.85 1.87109L109.971 3.98926C109.285 3.70801 108.717 3.51172 108.266 3.40039C107.82 3.28906 107.381 3.2334 106.947 3.2334C106.432 3.2334 106.036 3.35352 105.761 3.59375C105.485 3.83398 105.348 4.14746 105.348 4.53418C105.348 4.77441 105.403 4.98535 105.515 5.16699C105.626 5.34277 105.802 5.51562 106.042 5.68555C106.288 5.84961 106.865 6.14844 107.773 6.58203C108.975 7.15625 109.798 7.7334 110.243 8.31348C110.688 8.8877 110.911 9.59375 110.911 10.4316ZM124.903 7.55762C124.903 9.68457 124.376 11.3193 123.321 12.4619C122.267 13.6045 120.755 14.1758 118.786 14.1758C116.817 14.1758 115.306 13.6045 114.251 12.4619C113.196 11.3193 112.669 9.67871 112.669 7.54004C112.669 5.40137 113.196 3.76953 114.251 2.64453C115.312 1.51367 116.829 0.948242 118.804 0.948242C120.778 0.948242 122.287 1.5166 123.33 2.65332C124.379 3.79004 124.903 5.4248 124.903 7.55762ZM115.525 7.55762C115.525 8.99316 115.798 10.0742 116.343 10.8008C116.888 11.5273 117.702 11.8906 118.786 11.8906C120.96 11.8906 122.047 10.4463 122.047 7.55762C122.047 4.66309 120.966 3.21582 118.804 3.21582C117.72 3.21582 116.902 3.58203 116.352 4.31445C115.801 5.04102 115.525 6.12207 115.525 7.55762ZM127.566 14V1.15039H130.291V11.75H135.503V14H127.566ZM148.203 1.15039V9.46484C148.203 10.4141 147.989 11.2461 147.562 11.9609C147.14 12.6758 146.527 13.2236 145.725 13.6045C144.922 13.9854 143.973 14.1758 142.877 14.1758C141.225 14.1758 139.941 13.7539 139.027 12.9102C138.113 12.0605 137.656 10.9004 137.656 9.42969V1.15039H140.372V9.0166C140.372 10.0068 140.571 10.7334 140.97 11.1963C141.368 11.6592 142.027 11.8906 142.947 11.8906C143.838 11.8906 144.482 11.6592 144.881 11.1963C145.285 10.7275 145.487 9.99512 145.487 8.99902V1.15039H148.203ZM156.307 14H153.582V3.41797H150.093V1.15039H159.796V3.41797H156.307V14ZM161.773 14V1.15039H164.498V14H161.773ZM179.396 7.55762C179.396 9.68457 178.868 11.3193 177.813 12.4619C176.759 13.6045 175.247 14.1758 173.278 14.1758C171.31 14.1758 169.798 13.6045 168.743 12.4619C167.688 11.3193 167.161 9.67871 167.161 7.54004C167.161 5.40137 167.688 3.76953 168.743 2.64453C169.804 1.51367 171.321 0.948242 173.296 0.948242C175.271 0.948242 176.779 1.5166 177.822 2.65332C178.871 3.79004 179.396 5.4248 179.396 7.55762ZM170.018 7.55762C170.018 8.99316 170.29 10.0742 170.835 10.8008C171.38 11.5273 172.194 11.8906 173.278 11.8906C175.452 11.8906 176.539 10.4463 176.539 7.55762C176.539 4.66309 175.458 3.21582 173.296 3.21582C172.212 3.21582 171.395 3.58203 170.844 4.31445C170.293 5.04102 170.018 6.12207 170.018 7.55762ZM193.458 14H189.995L184.405 4.2793H184.326C184.438 5.99609 184.493 7.2207 184.493 7.95312V14H182.059V1.15039H185.495L191.076 10.7744H191.138C191.05 9.10449 191.006 7.92383 191.006 7.23242V1.15039H193.458V14ZM204.286 10.4316C204.286 11.5918 203.867 12.5059 203.029 13.1738C202.197 13.8418 201.037 14.1758 199.549 14.1758C198.178 14.1758 196.965 13.918 195.91 13.4023V10.8711C196.777 11.2578 197.51 11.5303 198.107 11.6885C198.711 11.8467 199.262 11.9258 199.76 11.9258C200.357 11.9258 200.814 11.8115 201.131 11.583C201.453 11.3545 201.614 11.0146 201.614 10.5635C201.614 10.3115 201.544 10.0889 201.403 9.89551C201.263 9.69629 201.055 9.50586 200.779 9.32422C200.51 9.14258 199.956 8.85254 199.118 8.4541C198.333 8.08496 197.744 7.73047 197.352 7.39062C196.959 7.05078 196.646 6.65527 196.411 6.2041C196.177 5.75293 196.06 5.22559 196.06 4.62207C196.06 3.48535 196.443 2.5918 197.211 1.94141C197.984 1.29102 199.051 0.96582 200.41 0.96582C201.078 0.96582 201.714 1.04492 202.317 1.20312C202.927 1.36133 203.562 1.58398 204.225 1.87109L203.346 3.98926C202.66 3.70801 202.092 3.51172 201.641 3.40039C201.195 3.28906 200.756 3.2334 200.322 3.2334C199.807 3.2334 199.411 3.35352 199.136 3.59375C198.86 3.83398 198.723 4.14746 198.723 4.53418C198.723 4.77441 198.778 4.98535 198.89 5.16699C199.001 5.34277 199.177 5.51562 199.417 5.68555C199.663 5.84961 200.24 6.14844 201.148 6.58203C202.35 7.15625 203.173 7.7334 203.618 8.31348C204.063 8.8877 204.286 9.59375 204.286 10.4316Z" fill="white"/>
</svg>
